<?xml version="1.0" standalone="no"?>
<svg viewBox="0 0 200 200" xmlns="http://www.w3.org/2000/svg">
  <rect x="35" y="31" fill="none" width="142" height="142"></rect>
  <path stroke="#000000" stroke-width="7" fill="#C84A53" d="M34.4,-60.1C42.1,-55,44.3,-41,49.3,-29.4C54.2,-17.9,61.8,-9,66.6,2.8C71.3,14.5,73.3,29,68.6,40.8C63.9,52.7,52.5,62,40,61.6C27.4,61.1,13.7,50.9,3.5,44.8C-6.7,38.8,-13.5,36.9,-22.8,35.5C-32.2,34.1,-44.2,33.3,-51.4,27.5C-58.5,21.6,-60.9,10.8,-57.8,1.8C-54.8,-7.3,-46.4,-14.6,-41.1,-23.6C-35.7,-32.6,-33.4,-43.2,-27.1,-49.1C-20.7,-55,-10.4,-56,1.5,-58.5C13.3,-61.1,26.6,-65.1,34.4,-60.1Z" transform="translate(100 103)" />
</svg>
